<?xml version="1.0" encoding="UTF-8" standalone="no"?>
<!-- Created with Inkscape (http://www.inkscape.org/) -->

<svg
   xmlns:dc="http://purl.org/dc/elements/1.1/"
   xmlns:cc="http://creativecommons.org/ns#"
   xmlns:rdf="http://www.w3.org/1999/02/22-rdf-syntax-ns#"
   xmlns:svg="http://www.w3.org/2000/svg"
   xmlns="http://www.w3.org/2000/svg"
   xmlns:sodipodi="http://sodipodi.sourceforge.net/DTD/sodipodi-0.dtd"
   xmlns:inkscape="http://www.inkscape.org/namespaces/inkscape"
   width="1485.733mm"
   height="703.43646mm"
   viewBox="0 0 5264.4084 2492.4914"
   id="svg4162"
   version="1.1"
   inkscape:version="0.91 r13725"
   sodipodi:docname="xferticket.svg">
  <defs
     id="defs4164" />
  <sodipodi:namedview
     id="base"
     pagecolor="#ffffff"
     bordercolor="#666666"
     borderopacity="1.0"
     inkscape:pageopacity="0.0"
     inkscape:pageshadow="2"
     inkscape:zoom="0.175"
     inkscape:cx="1418.6327"
     inkscape:cy="1143.3886"
     inkscape:document-units="px"
     inkscape:current-layer="layer1"
     showgrid="false"
     fit-margin-top="0"
     fit-margin-left="0"
     fit-margin-right="0"
     fit-margin-bottom="0"
     inkscape:window-width="1920"
     inkscape:window-height="1029"
     inkscape:window-x="0"
     inkscape:window-y="27"
     inkscape:window-maximized="1"
     showborder="false" />
  <metadata
     id="metadata4167">
    <rdf:RDF>
      <cc:Work
         rdf:about="">
        <dc:format>image/svg+xml</dc:format>
        <dc:type
           rdf:resource="http://purl.org/dc/dcmitype/StillImage" />
        <dc:title></dc:title>
      </cc:Work>
    </rdf:RDF>
  </metadata>
  <g
     inkscape:label="Layer 1"
     inkscape:groupmode="layer"
     id="layer1"
     transform="translate(2320.7756,816.74064)">
    <path
       style="clip-rule:evenodd;fill:#ebc05b;fill-rule:evenodd;image-rendering:optimizeQuality;shape-rendering:geometricPrecision;text-rendering:geometricPrecision"
       inkscape:connector-curvature="0"
       id="path47"
       d="m -2317.9284,-815.85954 5261.5291,-0.8811 0.032,82.6377 c -39.5583,-0.3717 -72.4968,31.8782 -71.9366,71.7992 -0.3718,39.5583 31.8781,72.4968 71.7991,71.9366 l -0.5415,100.6564 c -39.5584,-0.3718 -72.4968,31.8782 -71.9367,71.7992 -0.3717,39.5583 31.8782,72.4968 71.7992,71.9366 l -0.5415,100.6564 c -39.5584,-0.3718 -72.4968,31.8782 -71.9367,71.7992 -0.3718,39.5583 31.8782,72.4967 71.7992,71.9366 l -0.2845,108.2678019 c -233.053,0.5146 -422.5535,189.6667981 -422.039,422.7198981 0.5146,233.053 189.6668,422.5535 422.7199,422.039 l -0.2845,108.2678 c -39.5583,-0.3718 -72.4967,31.8782 -71.9366,71.79924 -0.3718,39.5583 31.8782,72.4967 71.7992,71.9366 l -0.5416,100.6564 c -39.5583,-0.3718 -72.4968,31.8781 -71.9366,71.7991 -0.3718,39.5584 31.8781,72.4968 71.7991,71.9367 l -0.5415,100.6564 c -39.5583,-0.3718 -72.4968,31.8781 -71.9366,71.7991 -0.3718,39.5584 31.8781,72.4968 71.7991,71.9367 l 0.032,82.6377 -5261.5292,0.8811 -0.032,-82.6378 c 39.5583,0.3718 72.4967,-31.8781 71.9366,-71.7991 0.3718,-39.5584 -31.8782,-72.4968 -71.7992,-71.9367 l 0.5416,-100.6563 c 39.5583,0.3717 72.4968,-31.8782 71.9366,-71.7992 0.3718,-39.5583 -31.8781,-72.4968 -71.7991,-71.9366 l 0.5415,-100.6564 c 39.5583,0.3718 72.4968,-31.8782 71.9366,-71.7992 0.3718,-39.55834 -31.8781,-72.49684 -71.7991,-71.93664 l 0.2844,-108.2678 c 233.0531,-0.5146 422.5536,-189.6668 422.039,-422.7199 -0.5145,-233.0531 -189.6668,-422.5535981 -422.7198,-422.0389981 l 0.2844,-108.2678019 c 39.5584,0.3718 72.4968,-31.8782 71.9367,-71.7992 0.3717,-39.5583 -31.8782,-72.4967 -71.7992,-71.9366 l 0.5415,-100.6564 c 39.5584,0.3718 72.4968,-31.8782 71.9367,-71.7992 0.3718,-39.5583 -31.8782,-72.4967 -71.7992,-71.9366 l 0.5416,-100.6564 c 39.5583,0.3718 72.4967,-31.8781 71.9366,-71.7991 0.3718,-39.5584 -31.8782,-72.4968 -71.7992,-71.9367 l -0.032,-82.6377 z"
       class="fil8" />
    <path
       style="clip-rule:evenodd;fill:#73452a;fill-rule:nonzero;image-rendering:optimizeQuality;shape-rendering:geometricPrecision;text-rendering:geometricPrecision"
       inkscape:connector-curvature="0"
       id="path49"
       d="m -1549.3937,-568.28274 450.8833,-0.5149 2824.1813,0.2523 450.8833,-0.5149 c 34.536,-0.5096 65.496,13.6849 88.7389,36.6798 22.311,22.6323 36.905,54.065 36.4827,88.2384 l 0.4161,1747.09474 c 0.5096,34.5361 -13.6849,65.496 -36.6798,88.7389 -22.6323,22.311 -54.065,36.905 -88.2384,36.4827 l -423.9587,0.2624 -27.8565,-0.1102 -2824.1813,-0.2523 -27.8566,-0.1101 -423.9586,0.2623 c -34.5361,0.5097 -65.496,-13.6848 -88.7389,-36.6797 -22.311,-22.6323 -36.905,-54.065 -36.4827,-88.2384 l -0.4161,-1747.09474 c -0.5096,-34.5361 13.6849,-65.496 36.6798,-88.7389 22.6323,-22.311 54.065,-36.905 88.2384,-36.4827 z m 3302.1316,54.2661 0.4347,1887.67214 423.9587,-0.2624 c 19.3132,0 37.4374,-7.965 49.7635,-20.3371 12.6887,-13.3039 20.5113,-30.6477 20.5159,-49.9609 l -0.4161,-1747.09474 c 0,-19.3132 -7.965,-37.4374 -20.3371,-49.7635 -13.3039,-12.6887 -30.6477,-20.5113 -49.9609,-20.5159 l -423.9587,0.2624 z m -2878.8904,1888.49404 -0.4347,-1887.67204 -423.9586,0.2624 c -19.3133,0 -37.4375,7.965 -49.7635,20.337 -12.6888,13.304 -20.5114,30.6478 -20.5159,49.961 l 0.4161,1747.09464 c 0,19.3133 7.9649,37.4374 20.337,49.7635 13.3039,12.6888 30.6477,20.5114 49.961,20.5159 l 423.9586,-0.2624 z m 54.3465,-1887.81444 0.4347,1887.67204 2768.4682,0.032 -0.4347,-1887.67204 -2768.4682,-0.032 z"
       class="fil9" />
    <path
       style="clip-rule:evenodd;fill:#ba7728;fill-rule:evenodd;image-rendering:optimizeQuality;shape-rendering:geometricPrecision;text-rendering:geometricPrecision"
       inkscape:connector-curvature="0"
       id="path55"
       d="m 1333.9521,1255.7356 -21.2138,-64.0544 -67.7776,0.45 55.153,-39.7008 -21.2139,-64.0544 54.4094,39.4159 54.2211,-40.0634 -20.571,63.8893 54.4094,39.4159 -67.4149,-0.4819 -20.5709,63.8892 z m -291.9246,0.1382 -21.2139,-64.0544 -67.77748,0.45 55.15298,-39.7008 -21.21388,-64.0544 54.40938,39.4159 54.2211,-40.0634 -20.571,63.8893 54.4094,39.4159 -67.4149,-0.4819 -20.5709,63.8892 z m -291.92458,0.1382 -21.2139,-64.0544 -67.7775,0.45 55.1529,-39.7007 -21.2138,-64.0545 54.4094,39.4159 54.221,-40.0634 -20.5709,63.8893 54.4094,39.4159 -67.4149,-0.4819 -20.5709,63.8892 z m -291.9246,0.1382 -21.2139,-64.0544 -67.7775,0.45 55.1529,-39.7007 -21.2138,-64.0545 54.4094,39.416 54.221,-40.0635 -20.5709,63.8893 54.4094,39.4159 -67.4149,-0.4819 -20.571,63.8893 z m -291.9246,0.1382 -21.2139,-64.0544 -67.777599,0.45 55.152999,-39.7007 -21.2139,-64.0545 54.4095,39.416 54.221,-40.0634 -20.5709,63.8892 54.4094,39.4159 -67.4149,-0.4819 -20.571,63.8893 z m -291.9246,0.1383 -21.2139,-64.0545 -67.7776,0.45 55.153,-39.7007 -21.2139,-64.0545 54.4094,39.416 54.221101,-40.0634 -20.571,63.8892 54.4095,39.4159 -67.414901,-0.4819 -20.571,63.8893 z m -291.9247,0.1382 -21.2138,-64.0545 -67.7776,0.45 55.153,-39.7007 -21.2139,-64.0544 54.4094,39.4159 54.2211,-40.0634 -20.571,63.8892 54.4094,39.416 -67.4148,-0.482 -20.571,63.8893 z m -291.9246,0.1382 -21.2138,-64.0545 -67.7776,0.4501 55.153,-39.7008 -21.2139,-64.0544 54.4094,39.4159 54.2211,-40.0634 -20.571,63.8892 54.4094,39.416 -67.4149,-0.4819 -20.5709,63.8892 z"
       class="fil11" />
    <text
       xml:space="preserve"
       style="color:#000000;font-style:normal;font-variant:normal;font-weight:normal;font-stretch:normal;font-size:938.50299072px;line-height:125%;font-family:sans-serif;text-indent:0;text-align:start;text-decoration:none;text-decoration-line:none;text-decoration-style:solid;text-decoration-color:#000000;letter-spacing:0px;word-spacing:0px;text-transform:none;direction:ltr;block-progression:tb;writing-mode:lr-tb;baseline-shift:baseline;text-anchor:start;white-space:normal;clip-rule:nonzero;display:inline;overflow:visible;visibility:visible;opacity:1;isolation:auto;mix-blend-mode:normal;color-interpolation:sRGB;color-interpolation-filters:linearRGB;solid-color:#000000;solid-opacity:1;fill:#9c162a;fill-opacity:1;fill-rule:nonzero;stroke:#000000;stroke-width:5.21390581;stroke-linecap:butt;stroke-linejoin:miter;stroke-miterlimit:4;stroke-dasharray:none;stroke-dashoffset:0;stroke-opacity:1;color-rendering:auto;image-rendering:auto;shape-rendering:auto;text-rendering:auto;enable-background:accumulate"
       x="-897.63824"
       y="797.94086"
       id="text4139"
       sodipodi:linespacing="125%"><tspan
         sodipodi:role="line"
         id="tspan4141"
         x="-897.63824"
         y="797.94086"
         style="font-style:normal;font-variant:normal;font-weight:normal;font-stretch:normal;font-family:'Nandaka Western';-inkscape-font-specification:'Nandaka Western';fill:#9c162a;fill-opacity:1;stroke-width:5.21390581">Xfer</tspan></text>
    <path
       style="clip-rule:evenodd;fill:#ba7728;fill-rule:evenodd;image-rendering:optimizeQuality;shape-rendering:geometricPrecision;text-rendering:geometricPrecision"
       inkscape:connector-curvature="0"
       id="path55-9"
       d="m -711.09498,-386.34184 21.2138,64.0544 67.7776,-0.45 -55.153,39.7008 21.2139,64.0544 -54.4094,-39.4159 -54.2211,40.0634 20.571,-63.8893 -54.4094,-39.4159 67.4149,0.4819 20.5709,-63.8892 z m 291.9246,-0.1382 21.2139,64.0544 67.7775,-0.45 -55.153,39.7008 21.2139,64.0544 -54.4094,-39.4159 -54.2211,40.0634 20.571,-63.8893 -54.4094,-39.4159 67.4149,0.4819 20.5709,-63.8892 z m 291.9246,-0.1382 21.2139,64.0544 67.777501,-0.45 -55.1529,39.7007 21.2138,64.0545 -54.409401,-39.4159 -54.221,40.0634 20.5709,-63.8893 -54.4094,-39.4159 67.4149,0.4819 20.5709,-63.8892 z m 291.9246,-0.1382 21.2139,64.0544 67.7775,-0.45 -55.1529,39.7007 21.2138,64.0545 -54.4094,-39.416 -54.221,40.0635 20.5709,-63.8893 -54.409399,-39.4159 67.414899,0.4819 20.571,-63.8893 z m 291.9246,-0.1382 21.2139,64.0544 67.7776,-0.45 -55.153,39.7007 21.2139,64.0545 -54.4095,-39.416 -54.221,40.0634 20.5709,-63.8892 -54.4094,-39.4159 67.4149,0.4819 20.571,-63.8893 z m 291.9246,-0.1383 21.2139,64.0545 67.7776,-0.45 -55.153,39.7007 21.2139,64.0545 -54.4094,-39.416 -54.2211,40.0634 20.571,-63.8892 -54.4095,-39.4159 67.4149,0.4819 20.571,-63.8893 z m 291.92468,-0.1382 21.2138,64.0545 67.7776,-0.45 -55.153,39.7007 21.2139,64.0544 -54.4094,-39.4159 -54.22108,40.0634 20.57098,-63.8892 -54.40938,-39.416 67.41478,0.482 20.571,-63.8893 z m 291.9246,-0.1382 21.2138,64.0545 67.7776,-0.4501 -55.153,39.7008 21.2139,64.0544 -54.4094,-39.4159 -54.2211,40.0634 20.571,-63.8892 -54.4094,-39.416 67.4149,0.4819 20.5709,-63.8892 z"
       class="fil11" />
    <text
       xml:space="preserve"
       style="color:#000000;font-style:normal;font-variant:normal;font-weight:normal;font-stretch:normal;font-size:275.88641357px;line-height:125%;font-family:sans-serif;text-indent:0;text-align:start;text-decoration:none;text-decoration-line:none;text-decoration-style:solid;text-decoration-color:#000000;letter-spacing:0px;word-spacing:0px;text-transform:none;direction:ltr;block-progression:tb;writing-mode:lr-tb;baseline-shift:baseline;text-anchor:start;white-space:normal;clip-rule:nonzero;display:inline;overflow:visible;visibility:visible;opacity:1;isolation:auto;mix-blend-mode:normal;color-interpolation:sRGB;color-interpolation-filters:linearRGB;solid-color:#000000;solid-opacity:1;fill:#ba7728;fill-opacity:1;fill-rule:nonzero;stroke:#000000;stroke-width:1.53270233;stroke-linecap:butt;stroke-linejoin:miter;stroke-miterlimit:4;stroke-dasharray:none;stroke-dashoffset:0;stroke-opacity:1;color-rendering:auto;image-rendering:auto;shape-rendering:auto;text-rendering:auto;enable-background:accumulate"
       x="-273.00833"
       y="1475.4149"
       id="text4176"
       sodipodi:linespacing="125%"
       transform="matrix(0,1,-1,0,0,0)"><tspan
         sodipodi:role="line"
         id="tspan4178"
         x="-273.00833"
         y="1475.4149"
         style="fill:#ba7728;fill-opacity:1;stroke-width:1.53270233">01011000</tspan></text>
    <text
       xml:space="preserve"
       style="color:#000000;font-style:normal;font-variant:normal;font-weight:normal;font-stretch:normal;font-size:275.88641357px;line-height:125%;font-family:sans-serif;text-indent:0;text-align:start;text-decoration:none;text-decoration-line:none;text-decoration-style:solid;text-decoration-color:#000000;letter-spacing:0px;word-spacing:0px;text-transform:none;direction:ltr;block-progression:tb;writing-mode:lr-tb;baseline-shift:baseline;text-anchor:start;white-space:normal;clip-rule:nonzero;display:inline;overflow:visible;visibility:visible;opacity:1;isolation:auto;mix-blend-mode:normal;color-interpolation:sRGB;color-interpolation-filters:linearRGB;solid-color:#000000;solid-opacity:1;fill:#ba7728;fill-opacity:1;fill-rule:nonzero;stroke:#000000;stroke-width:1.53270233;stroke-linecap:butt;stroke-linejoin:miter;stroke-miterlimit:4;stroke-dasharray:none;stroke-dashoffset:0;stroke-opacity:1;color-rendering:auto;image-rendering:auto;shape-rendering:auto;text-rendering:auto;enable-background:accumulate"
       x="-1132.0186"
       y="2099.1589"
       id="text4176-7"
       sodipodi:linespacing="125%"
       transform="matrix(0,-1,1,0,0,0)"><tspan
         sodipodi:role="line"
         id="tspan4178-9"
         x="-1132.0186"
         y="2099.1589"
         style="fill:#ba7728;fill-opacity:1;stroke-width:1.53270233">01011000</tspan></text>
  </g>
</svg>
